<svg width="45" height="45" viewBox="0 0 45 45" fill="none" xmlns="http://www.w3.org/2000/svg">
<path d="M25.8878 39.3683C26.174 39.3683 26.2724 39.4398 26.2635 39.735C26.2456 40.2179 26.2545 40.7009 26.2635 41.1838L25.8878 39.3683ZM25.8878 39.3683C24.0449 39.3772 22.1931 39.3772 20.3503 39.3772C17.2372 39.3772 15.0186 37.1593 15.0096 34.0381M25.8878 39.3683L15.0096 31.4893M15.0096 31.4893C15.0037 32.0557 15.0057 32.6221 15.0077 33.1885C15.0087 33.4717 15.0096 33.7549 15.0096 34.0381M15.0096 31.4893C15.0186 30.6218 15.609 30.0047 16.4052 29.9958L15.0096 31.4893ZM15.0096 34.0381H15.2096C15.2096 34.038 15.2096 34.0379 15.2096 34.0379M15.0096 34.0381L15.2096 34.0375C15.2096 34.0376 15.2096 34.0377 15.2096 34.0379M15.2096 34.0379C15.2184 37.0491 17.348 39.1772 20.3503 39.1772C22.1932 39.1772 24.0445 39.1772 25.8868 39.1683L25.8878 39.1683C26.0312 39.1683 26.2008 39.182 26.3221 39.2941C26.4499 39.4123 26.4681 39.5845 26.4634 39.741L26.4634 39.7424C26.4457 40.2188 26.4545 40.6962 26.4635 41.1801L26.4635 41.1811C26.4975 43.716 28.7584 45.3865 31.1667 44.6066M15.2096 34.0379L31.1667 44.6066M31.1667 44.6066L31.2284 44.7969L31.1668 44.6066C31.1668 44.6066 31.1667 44.6066 31.1667 44.6066ZM28.8456 40.9584C28.8407 41.4932 29.0532 41.9063 29.4056 42.1407C29.7538 42.3723 30.2075 42.4089 30.6488 42.2585L30.6491 42.2584C33.2727 41.3599 35.9056 40.4859 38.5422 39.6108C39.4737 39.3016 40.4057 38.9922 41.3378 38.6816C41.7084 38.5581 41.9881 38.4166 42.1642 38.1747C42.3408 37.9322 42.387 37.6249 42.387 37.2398V37.1749V37.1101V37.0452V36.9803V36.9154V36.8506V36.7857V36.7208V36.656V36.5911V36.5262V36.4613V36.3965V36.3316V36.2667V36.2019V36.137V36.0721V36.0072V35.9424V35.8775V35.8126V35.7478V35.6829V35.618V35.5532V35.4883V35.4234V35.3586V35.2937V35.2288V35.164V35.0991V35.0342V34.9694V34.9045V34.8396V34.7748V34.7099V34.645V34.5802V34.5153V34.4504V34.3856V34.3207V34.2558V34.191V34.1261V34.0612V33.9964V33.9315V33.8666V33.8018V33.7369V33.672V33.6072V33.5423V33.4775V33.4126V33.3477V33.2829V33.218V33.1531V33.0883V33.0234V32.9586V32.8937V32.8288V32.764V32.6991V32.6342V32.5694V32.5045V32.4397V32.3748V32.3099V32.2451V32.1802V32.1154V32.0505V31.9856V31.9208V31.8559V31.7911V31.7262V31.6613V31.5965V31.5316V31.4668V31.4019V31.3371V31.2722V31.2073V31.1425V31.0776V31.0128V30.9479V30.883V30.8182V30.7533V30.6885V30.6236V30.5588V30.4939V30.429V30.3642V30.2993V30.2345V30.1696V30.1048V30.0399V29.9751V29.9102V29.8453V29.7805V29.7156V29.6508V29.5859V29.5211V29.4562V29.3914V29.3265V29.2616V29.1968V29.1319V29.0671V29.0022V28.9374V28.8725V28.8077V28.7428V28.678V28.6131V28.5483V28.4834V28.4185V28.3537V28.2888V28.224V28.1591V28.0943V28.0294V27.9646V27.8997V27.8349V27.77V27.7052V27.6403V27.5755V27.5106V27.4458V27.3809V27.3161V27.2512V27.1864V27.1215V27.0567V26.9918V26.9269V26.8621V26.7972V26.7324V26.6675V26.6027V26.5378V26.473V26.4081V26.3433V26.2784V26.2136V26.1487V26.0839V26.019V25.9542V25.8893V25.8245V25.7596V25.6948V25.6299V25.5651V25.5002V25.4354V25.3705V25.3057V25.2408V25.176V25.1111V25.0463V24.9814V24.9166V24.8517V24.7869V24.722V24.6572V24.5923V24.5275V24.4626V24.3978V24.333V24.2681V24.2033V24.1384V24.0736V24.0087V23.9439V23.879V23.8142V23.7493V23.6845V23.6196V23.5548V23.4899V23.4251V23.3602V23.2954V23.2305V23.1657V23.1008V23.036V22.9711V22.9063V22.8414V22.7766V22.7117V22.6469V22.582V22.5172V22.4524V22.3875V22.3227V22.2578V22.193V22.1281V22.0633V21.9984V21.9336V21.8687V21.8039V21.739V21.6742V21.6093V21.5445V21.4796V21.4148V21.3499V21.2851V21.2202V21.1554V21.0906V21.0257V20.9609V20.896V20.8312V20.7663V20.7015V20.6366V20.5718V20.5069V20.4421V20.3772V20.3124V20.2475V20.1827V20.1178V20.053V19.9881V19.9233V19.8584V19.7936V19.7288V19.6639V19.5991V19.5342V19.4694V19.4045V19.3397V19.2748V19.21V19.1451V19.0803V19.0154V18.9506V18.8857V18.8209V18.756V18.6912V18.6263V18.5615V18.4966V18.4318V18.367V18.3021V18.2373V18.1724V18.1076V18.0427V17.9779V17.913V17.8482V17.7833V17.7185V17.6536V17.5888V17.5239V17.4591V17.3942V17.3294V17.2645V17.1997V17.1348V17.07V17.0051V16.9403V16.8754V16.8106V16.7457V16.6809V16.616V16.5512V16.4863V16.4215V16.3566V16.2918V16.2269V16.1621V16.0972V16.0324V15.9675V15.9027V15.8378V15.773V15.7081V15.6433V15.5785V15.5136V15.4488V15.3839V15.319V15.2542V15.1893V15.1245V15.0596V14.9948V14.9299V14.8651V14.8002V14.7354V14.6705V14.6057V14.5408V14.476V14.4111V14.3463V14.2814V14.2166V14.1517V14.0869V14.022V13.9572V13.8923V13.8275V13.7626V13.6978V13.6329V13.5681V13.5032V13.4384V13.3735V13.3087V13.2438V13.179V13.1141V13.0492V12.9844V12.9195V12.8547V12.7898V12.725V12.6601V12.5953V12.5304V12.4656V12.4007V12.3359V12.271V12.2062V12.1413V12.0764V12.0116V11.9467V11.8819V11.817V11.7522V11.6873V11.6225V11.5576V11.4927V11.4279V11.363V11.2982V11.2333V11.1685V11.1036V11.0388V10.9739V10.909V10.8442V10.7793V10.7145V10.6496V10.5848V10.5199V10.455V10.3902V10.3253V10.2605V10.1956V10.1308V10.0659V10.001V9.93618V9.87132V9.80647V9.74161V9.67675V9.61189V9.54703V9.48217V9.41731V9.35245V9.28759V9.22273V9.15787V9.09301V9.02815V8.96329V8.89843V8.83357V8.76871V8.70385V8.63899V8.57413V8.50927V8.4444V8.37954V8.31468V8.24982V8.18496V8.12009V8.05523V7.99037V7.92551V7.86064V7.79578V7.73092V7.66605V7.60119V7.53633V7.47146V7.4066V7.34173V7.27687V7.21201V7.14714V7.08228V7.01741V6.95255V6.88768V6.82281V6.75795V6.69308V6.62822V6.56335V6.49848V6.43362V6.36875V6.30388V6.23902V6.17415V6.10928V6.04441V5.97955V5.91468V5.84981V5.78494V5.72007V5.65521V5.59034V5.52547V5.4606V5.39573V5.33086V5.26599V5.20112V5.13625V5.07138V5.00651V4.94164V4.87677V4.81189V4.74702V4.68215V4.61728V4.55241V4.48754V4.42266V4.35779V4.29292V4.22805V4.16317V4.0983V4.03343C42.387 3.4976 42.2467 3.06354 41.9137 2.82367C41.5804 2.58363 41.1238 2.58797 40.6114 2.76174C37.078 3.94221 33.5446 5.12264 30.0022 6.30308C29.5686 6.4476 29.2534 6.57732 29.0703 6.83065C28.887 7.0842 28.8635 7.42351 28.8635 7.87902V7.91125V7.94348V7.9757V8.00793V8.04016V8.07238V8.10461V8.13683V8.16906V8.20128V8.23351V8.26573V8.29796V8.33018V8.36241V8.39463V8.42686V8.45908V8.4913V8.52353V8.55575V8.58797V8.6202V8.65242V8.68464V8.71686V8.74908V8.78131V8.81353V8.84575V8.87797V8.91019V8.94241V8.97463V9.00685V9.03907V9.07129V9.10351V9.13573V9.16795V9.20017V9.23239V9.26461V9.29683V9.32905V9.36127V9.39348V9.4257V9.45792V9.49014V9.52235V9.55457V9.58679V9.61901V9.65122V9.68344V9.71565V9.74787V9.78009V9.8123V9.84452V9.87673V9.90895V9.94116V9.97338V10.0056V10.0378V10.07V10.1022V10.1344V10.1667V10.1989V10.2311V10.2633V10.2955V10.3277V10.3599V10.3922V10.4244V10.4566V10.4888V10.521V10.5532V10.5854V10.6176V10.6498V10.6821V10.7143V10.7465V10.7787V10.8109V10.8431V10.8753V10.9075V10.9397V10.972V11.0042V11.0364V11.0686V11.1008V11.133V11.1652V11.1974V11.2296V11.2618V11.294V11.3262V11.3585V11.3907V11.4229V11.4551V11.4873V11.5195V11.5517V11.5839V11.6161V11.6483V11.6805V11.7127V11.7449V11.7771V11.8093V11.8415V11.8738V11.906V11.9382V11.9704V12.0026V12.0348V12.067V12.0992V12.1314V12.1636V12.1958V12.228V12.2602V12.2924V12.3246V12.3568V12.389V12.4212V12.4534V12.4856V12.5178V12.55V12.5822V12.6144V12.6466V12.6788V12.711V12.7432V12.7754V12.8076V12.8398V12.872V12.9042V12.9364V12.9686V13.0008V13.033V13.0652V13.0974V13.1296V13.1618V13.194V13.2262V13.2584V13.2906V13.3228V13.355V13.3872V13.4194V13.4516V13.4838V13.516V13.5482V13.5804V13.6126V13.6448V13.677V13.7092V13.7414V13.7736V13.8058V13.838V13.8702V13.9024V13.9346V13.9668V13.999V14.0312V14.0633V14.0955V14.1277V14.1599V14.1921V14.2243V14.2565V14.2887V14.3209V14.3531V14.3853V14.4175V14.4497V14.4819V14.5141V14.5463V14.5785V14.6106V14.6428V14.675V14.7072V14.7394V14.7716V14.8038V14.836V14.8682V14.9004V14.9326V14.9648V14.997V15.0292V15.0613V15.0935V15.1257V15.1579V15.1901V15.2223V15.2545V15.2867V15.3189V15.3511V15.3833V15.4154V15.4476V15.4798V15.512V15.5442V15.5764V15.6086V15.6408V15.673V15.7051V15.7373V15.7695V15.8017V15.8339V15.8661V15.8983V15.9305V15.9627V15.9948V16.027V16.0592V16.0914V16.1236V16.1558V16.188V16.2202V16.2524V16.2845V16.3167V16.3489V16.3811V16.4133V16.4455V16.4777V16.5098V16.542V16.5742V16.6064V16.6386V16.6708V16.703V16.7352V16.7673V16.7995V16.8317V16.8639V16.8961V16.9283V16.9605V16.9926V17.0248V17.057V17.0892V17.1214V17.1536V17.1857V17.2179V17.2501V17.2823V17.3145V17.3467V17.3789V17.411V17.4432V17.4754V17.5076V17.5398V17.572V17.6041V17.6363V17.6685V17.7007V17.7329V17.7651V17.7972V17.8294V17.8616V17.8938V17.926V17.9582V17.9903V18.0225V18.0547V18.0869V18.1191V18.1513V18.1834V18.2156V18.2478V18.28V18.3122V18.3443V18.3765V18.4087V18.4409V18.4731V18.5053V18.5374V18.5696V18.6018V18.634V18.6662V18.6983V18.7305V18.7627V18.7949V18.8271V18.8592V18.8914V18.9236V18.9558V18.988V19.0201V19.0523V19.0845V19.1167V19.1489V19.181V19.2132V19.2454V19.2776V19.3098V19.3419V19.3741V19.4063V19.4385V19.4707V19.5028V19.535V19.5672V19.5994V19.6316V19.6637V19.6959V19.7281V19.7603V19.7925V19.8246V19.8568V19.889V19.9212V19.9534V19.9855V20.0177V20.0499V20.0821V20.1142V20.1464V20.1786V20.2108V20.243V20.2751V20.3073V20.3395V20.3717V20.4038V20.436V20.4682V20.5004V20.5326V20.5647V20.5969V20.6291V20.6613V20.6934V20.7256V20.7578V20.79V20.8222V20.8543V20.8865V20.9187V20.9509V20.983V21.0152V21.0474V21.0796V21.1117V21.1439V21.1761V21.2083V21.2405V21.2726V21.3048V21.337V21.3692V21.4013V21.4335V21.4657V21.4979V21.53V21.5622V21.5944V21.6266V21.6587V21.6909V21.7231V21.7553V21.7875V21.8196V21.8518V21.884V21.9162V21.9483V21.9805V22.0127V22.0449V22.077V22.1092V22.1414V22.1736V22.2057V22.2379V22.2701V22.3023V22.3344V22.3666V22.3988V22.431V22.4631V22.4953V22.5275V22.5597V22.5918V22.624V22.6562V22.6884V22.7205V22.7527V22.7849V22.8171V22.8492V22.8814V22.9136V22.9458V22.9779V23.0101V23.0423V23.0745V23.1066V23.1388V23.171V23.2032V23.2353V23.2675V23.2997V23.3319V23.364V23.3962V23.4284V23.4606V23.4928V23.5249V23.5571V23.5893V23.6214V23.6536V23.6858V23.718V23.7501V23.7823V23.8145V23.8467V23.8788V23.911V23.9432V23.9754V24.0075V24.0397V24.0719V24.1041V24.1362V24.1684V24.2006V24.2328V24.2649V24.2971V24.3293V24.3615C28.8635 25.7462 28.8646 27.1308 28.8658 28.5151C28.8691 32.6659 28.8725 36.8145 28.8456 40.9584ZM28.8456 40.9584C28.8456 40.9584 28.8456 40.9584 28.8456 40.9583L29.0456 40.9602L28.8456 40.9589C28.8456 40.9587 28.8456 40.9586 28.8456 40.9584ZM1.81481 18.4803L1.81394 18.4803C1.10426 18.4729 0.630419 18.6583 0.324313 19.1494C0.234362 19.2937 0.2 19.4837 0.2 19.6896L1.81481 18.4803ZM1.81481 18.4803C5.0172 18.4994 8.21994 18.4958 11.4219 18.4921C12.7019 18.4907 13.9818 18.4892 15.2616 18.4892C15.2658 18.4892 15.2701 18.4893 15.2746 18.4894C15.279 18.4894 15.2836 18.4896 15.2883 18.4898C15.4593 18.4962 15.6473 18.4337 15.7215 18.254C15.7941 18.0781 15.7105 17.901 15.5913 17.7815C14.8888 17.0748 14.1841 16.3703 13.4796 15.666L13.4791 15.6655C12.7748 14.9614 12.0707 14.2575 11.3689 13.5514L11.3684 13.5509M1.81481 18.4803L11.3684 13.5509M11.3684 13.5509C10.9693 13.1519 10.8818 12.6159 11.0949 12.1588C11.3095 11.7073 11.7849 11.4303 12.2926 11.468C12.6184 11.4988 12.8809 11.6488 13.1252 11.8931C14.2789 13.0465 15.4349 14.1998 16.5907 15.3531L16.5919 15.3543C17.7481 16.508 18.9043 17.6616 20.0583 18.8152C20.3297 19.0866 20.4561 19.3953 20.457 19.6939C20.4579 19.9925 20.3336 20.3009 20.0666 20.572C17.7499 22.897 15.4334 25.2128 13.0992 27.5195L13.0984 27.5203M11.3684 13.5509L13.0984 27.5203M13.0984 27.5203C12.5528 28.0658 11.8217 28.0615 11.3427 27.5751L11.3416 27.574M13.0984 27.5203L11.3416 27.574M11.3416 27.574C10.8573 27.0898 10.8633 26.3489 11.4228 25.7813M11.3416 27.574L11.4228 25.7813M11.4228 25.7813C12.1157 25.0841 12.8087 24.3913 13.5019 23.6983L13.502 23.6982C14.1951 23.0053 14.8886 22.3121 15.582 21.6143C15.5821 21.6142 15.5822 21.6141 15.5823 21.614L15.4405 21.473L11.4228 25.7813ZM15.4635 8.70517C15.3248 8.52318 15.2365 8.36323 15.2365 8.19204H15.2365L15.2364 8.18779C15.2305 7.90921 15.2212 7.63259 15.212 7.35751C15.179 6.37226 15.1467 5.40694 15.2706 4.44349L15.2707 4.44309C15.5364 2.34381 17.1747 0.691397 19.269 0.286005C19.3291 0.275069 19.3844 0.263687 19.4367 0.252934C19.5752 0.224474 19.6922 0.200419 19.8183 0.200716C26.4508 0.216319 33.0974 0.217735 39.7385 0.217864C41.0834 0.21789 42.4418 0.231294 43.4292 0.994189C43.56 1.09522 43.6848 1.20786 43.8027 1.33442C44.4349 2.01773 44.7874 2.81164 44.796 3.73037C44.796 3.73065 44.796 3.73092 44.796 3.73119L44.996 3.72936L15.4635 8.70517ZM31.4208 3.01713H31.4235H31.4454H31.4672H31.489H31.5108H31.5326C31.5083 3.01713 31.4862 3.0099 31.4677 2.99805C31.4893 2.98919 31.5109 2.98027 31.5326 2.97131C31.5424 2.96725 31.5521 2.96318 31.5619 2.95909C31.6381 2.92732 31.6151 2.81713 31.5326 2.81713H31.5027H31.4324C31.4468 2.7969 31.4658 2.78248 31.4849 2.77451C31.4505 2.78886 31.4161 2.80306 31.3817 2.81713H20.3771C18.7848 2.81713 17.8365 3.76513 17.8276 5.34809L31.4208 3.01713Z" fill="black" stroke="#00FF42" stroke-width="0.4"/>
</svg>
