<svg width="51" height="52" viewBox="0 0 51 52" fill="none" xmlns="http://www.w3.org/2000/svg">
<path d="M47.3492 0.919373C48.2692 1.16937 49.1392 1.50938 49.8192 2.23938C50.5592 3.03938 50.9792 3.9794 50.9892 5.0694C50.9892 17.6594 50.9992 30.2494 50.9892 42.8394C50.9892 44.6594 49.8792 46.2194 48.1492 46.7994C43.9692 48.2094 39.7892 49.6294 35.5992 50.9894C32.7592 51.9094 30.0892 49.9294 30.0492 46.9494C30.0392 46.4094 30.0292 45.8694 30.0492 45.3294C30.0592 44.9994 29.9492 44.9194 29.6292 44.9194C27.5692 44.9294 25.4992 44.9294 23.4392 44.9294C19.9592 44.9294 17.4792 42.4494 17.4692 38.9594C17.4692 38.0094 17.4592 37.0594 17.4692 36.1094C17.4792 35.1394 18.1392 34.4494 19.0292 34.4394C19.9092 34.4394 20.5892 35.1394 20.6092 36.0994C20.6292 37.0794 20.6092 38.0594 20.6192 39.0494C20.6392 40.6894 21.7292 41.7794 23.3792 41.7794C25.4092 41.7894 27.4392 41.7694 29.4692 41.7894C29.9392 41.7994 30.0592 41.6794 30.0592 41.1994C30.0492 30.6594 30.0592 20.1094 30.0392 9.5694C30.0392 7.7894 30.7392 6.4294 32.2992 5.5694C32.7392 5.3294 33.2392 5.19942 33.7192 5.02942C34.5892 4.72942 35.4692 4.43938 36.3392 4.04938C36.2092 4.04938 36.0692 4.04938 35.9392 4.04938C31.7792 4.04938 27.6192 4.04938 23.4692 4.04938C21.6892 4.04938 20.6292 5.10939 20.6192 6.87939C20.6192 7.84939 20.6292 8.80942 20.6092 9.77942C20.5892 10.5194 20.1492 11.1094 19.5092 11.3094C18.8792 11.5094 18.2092 11.2994 17.7992 10.7694C17.6392 10.5594 17.4992 10.3294 17.4992 10.0594C17.4692 8.64939 17.3592 7.23942 17.5392 5.83942C17.8492 3.38942 19.7592 1.46939 22.1892 0.99939C22.2992 0.97939 22.4092 0.939414 22.5092 0.899414C30.7792 0.919414 39.0692 0.919373 47.3492 0.919373ZM33.1792 28.1394C33.1792 34.3294 33.1992 40.5194 33.1592 46.6994C33.1492 47.7694 33.9992 48.2394 34.8792 47.9394C38.8492 46.5794 42.8392 45.2694 46.8292 43.9394C47.6392 43.6694 47.8492 43.3794 47.8492 42.5394C47.8492 30.1594 47.8492 17.7894 47.8492 5.40936C47.8492 4.26936 47.2492 3.8294 46.1592 4.1994C42.2092 5.5194 38.2592 6.83936 34.2992 8.15936C33.3092 8.48936 33.1792 8.66941 33.1792 9.70941C33.1792 15.8594 33.1792 21.9994 33.1792 28.1394Z" fill="black"/>
<path d="M0.689453 22.5298C1.06945 21.6298 1.74946 21.3298 2.71946 21.3398C7.72946 21.3698 12.7395 21.3497 17.7495 21.3497C17.9195 21.3497 18.0995 21.3997 18.2695 21.3097C18.2195 21.1297 18.0695 21.0497 17.9595 20.9397C16.3895 19.3597 14.8095 17.7898 13.2395 16.2098C12.7295 15.6998 12.6095 14.9998 12.8895 14.3998C13.1695 13.8098 13.7895 13.4497 14.4495 13.4997C14.8795 13.5397 15.2195 13.7397 15.5195 14.0397C18.0995 16.6197 20.6895 19.1998 23.2695 21.7798C23.9495 22.4598 23.9495 23.3797 23.2795 24.0597C20.6895 26.6597 18.0995 29.2497 15.4895 31.8297C14.7995 32.5197 13.8395 32.5297 13.2095 31.8897C12.5695 31.2497 12.5995 30.2797 13.2995 29.5697C14.8495 28.0097 16.3995 26.4697 17.9495 24.9097C18.0595 24.7997 18.1695 24.6797 18.3495 24.4797C18.0895 24.4797 17.9195 24.4797 17.7495 24.4797C12.7395 24.4797 7.72946 24.4597 2.71946 24.4897C1.74946 24.4997 1.07945 24.1897 0.689453 23.2997C0.689453 23.0597 0.689453 22.7898 0.689453 22.5298Z" fill="black"/>
</svg>
