<svg width="92" height="92" viewBox="0 0 92 92" fill="none" xmlns="http://www.w3.org/2000/svg">
<path d="M85.0794 7.54986C78.7494 0.569862 62.5994 0.939863 46.4594 0.609863C30.3094 0.939863 14.1694 0.569862 7.83941 7.54986C5.21941 9.92986 3.62941 13.6999 2.65941 18.3299H27.0994H29.4094H40.2494H54.3194C65.3794 18.3299 71.5794 24.9299 71.5794 33.4499C71.5794 38.5399 69.4294 42.9199 64.4994 45.6199C69.8294 48.3999 72.3794 52.8599 72.3794 58.2699C72.3794 67.1799 65.9294 74.0199 54.3994 74.0199H40.2394H29.4094H27.0994H2.64941C3.61941 78.6499 5.20941 82.4199 7.82941 84.7999C14.1594 91.7799 30.3094 91.4099 46.4494 91.7399C62.5994 91.4099 78.7394 91.7799 85.0694 84.7999C92.0494 78.4699 91.6794 62.3199 92.0094 46.1799C91.6894 30.0199 92.0594 13.8799 85.0794 7.54986Z" fill="#4E30DD"/>
<path d="M27.0896 18.3198H2.64965C1.02965 26.0098 1.09965 36.0898 0.889648 46.1698C1.09965 56.2498 1.02965 66.3298 2.64965 74.0198H27.0896H29.3997V18.3198H27.0896Z" fill="#72FF01"/>
<path d="M64.4992 45.6098C69.4292 42.8998 71.5792 38.5298 71.5792 33.4398C71.5792 24.9298 65.3692 18.3198 54.3192 18.3198H40.2392H29.4092V74.0198H40.2492H54.3992C65.9392 74.0198 72.3792 67.1798 72.3792 58.2698C72.3692 52.8498 69.8292 48.3998 64.4992 45.6098Z" fill="white"/>
</svg>
