<svg width="69" height="52" viewBox="0 0 69 52" fill="none" xmlns="http://www.w3.org/2000/svg">
<path d="M0 46.1575C0.5 44.2775 0.810002 42.3575 1.19 40.4475C3.35 29.6875 5.5 18.9275 7.65 8.15746C7.97 6.54746 8.27 4.93747 8.63 3.34747C9.08 1.33747 10.72 0.0175 12.79 0.0075C26.95 -0.0025 41.11 -0.0025 55.27 0.0075C57.38 0.0075 59.04 1.30749 59.47 3.36749C60.51 8.36749 61.5 13.3875 62.5 18.3975C64.3 27.3975 66.09 36.4075 67.91 45.4075C68.27 47.1675 68.03 48.7175 66.67 49.9675C65.86 50.7175 64.87 51.0675 63.76 51.0675C61.23 51.0675 58.71 51.0675 56.18 51.0675C39.18 51.0675 22.19 51.0675 5.19 51.0675C2.12 51.0675 1.09 50.3575 0 47.4775C0 47.0375 0 46.5975 0 46.1575ZM28.26 48.2475C35.99 48.2475 43.73 48.2475 51.46 48.2475C51.7 48.2475 51.95 48.2475 52.19 48.2375C53.64 48.1275 54.08 47.5275 53.79 46.0775C51.64 35.3175 49.49 24.5475 47.34 13.7875C46.71 10.6375 46.09 7.49747 45.45 4.34747C45.22 3.21747 44.91 2.94747 43.77 2.84747C43.59 2.82747 43.42 2.82751 43.24 2.82751C33.2 2.82751 23.16 2.82751 13.12 2.82751C11.96 2.82751 11.53 3.19751 11.3 4.32751C9.14 15.1075 6.98 25.8975 4.82 36.6775C4.17 39.9275 3.52 43.1875 2.89 46.4475C2.69 47.4775 3.27 48.1675 4.32 48.2375C4.54 48.2475 4.76 48.2475 4.98 48.2475C12.75 48.2475 20.51 48.2475 28.26 48.2475ZM51.88 2.82751C50.84 2.82751 49.8 2.8575 48.76 2.8175C48.2 2.7975 47.99 2.87751 48.15 3.51751C48.46 4.75751 48.68 6.02747 48.93 7.28747C51.49 20.0675 54.04 32.8475 56.6 45.6275C56.74 46.3275 56.85 47.0375 56.64 47.7275C56.47 48.2575 56.73 48.2575 57.11 48.2575C59.19 48.2475 61.28 48.2575 63.36 48.2575C64.91 48.2575 65.46 47.6075 65.16 46.0875C62.37 32.1375 59.58 18.1875 56.79 4.23748C56.59 3.24748 56.11 2.84746 55.08 2.83746C54.01 2.81746 52.95 2.82751 51.88 2.82751Z" fill="black"/>
<path d="M17.0299 11.3478C17.0299 9.81784 17.0199 8.54785 17.0299 7.28785C17.0399 6.31785 17.5899 5.70788 18.4399 5.69788C19.2999 5.69788 19.8499 6.27789 19.8499 7.26789C19.8599 9.52789 19.8399 11.7879 19.8599 14.0479C19.8899 18.2879 22.6699 21.6979 26.7699 22.5479C31.7299 23.5679 36.6799 19.7479 36.8499 14.6879C36.9299 12.2479 36.8699 9.80787 36.8799 7.37787C36.8899 6.33787 37.4099 5.71788 38.2699 5.69788C39.0099 5.67788 39.6799 6.14784 39.6799 6.90784C39.6699 10.2478 40.1199 13.6178 39.3599 16.9078C38.1399 22.2078 33.1899 25.8079 27.6899 25.5179C22.3199 25.2379 17.8199 21.0378 17.1199 15.6478C16.9299 14.1278 17.0899 12.5978 17.0299 11.3478Z" fill="black"/>
</svg>
