<svg width="91" height="34" viewBox="0 0 91 34" fill="none" xmlns="http://www.w3.org/2000/svg">
<path d="M7.07558 0C3.167 0 0 3.16186 0 7.06416V26.9358C0 30.8381 3.167 34 7.07558 34H45.4998V0H7.07558Z" fill="#4E30DD"/>
<path d="M83.9242 0.700425C87.4319 0.700425 90.2882 3.55208 90.2882 7.05414V26.9258C90.2882 30.4279 87.4319 33.2796 83.9242 33.2796H46.2015V0.690409H83.9242M83.9242 0H45.5V34H83.9242C87.8328 34 90.9998 30.8381 90.9998 26.9358V7.06416C90.9998 3.16186 87.8328 0 83.9242 0Z" fill="#4E30DD"/>
<path d="M35.8883 9.27441H9.60059V14.4275H35.8883V9.27441Z" fill="white"/>
<path d="M35.8883 14.4277H9.60059V19.5808H35.8883V14.4277Z" fill="#4E30DD"/>
<path d="M35.8883 19.5703H9.60059V24.7233H35.8883V19.5703Z" fill="#C1272D"/>
<path d="M55.1113 9.27539V14.4284V19.5715V24.7245H81.399V19.5715V14.4284V9.27539H55.1113Z" fill="#4E30DD"/>
<path d="M68.2489 23.2435L67.9684 22.383H67.0664L67.798 21.8527L67.5173 20.9922L68.2489 21.5225L68.9805 20.9922L68.7 21.8527L69.4316 22.383H68.5296L68.2489 23.2435Z" fill="#FCEE21"/>
<path d="M63.8302 21.4118L64.241 20.6113L63.5996 19.9709L64.4916 20.111L64.9025 19.3105L65.0428 20.2011L65.9448 20.3411L65.133 20.7514L65.2733 21.6419L64.6419 21.0015L63.8302 21.4118Z" fill="#FCEE21"/>
<path d="M61.9961 16.999L62.858 16.7189V15.8184L63.3892 16.5488L64.251 16.2686L63.7198 16.999L64.251 17.7295L63.3892 17.4493L62.858 18.1797V17.2792L61.9961 16.999Z" fill="#FCEE21"/>
<path d="M63.8302 12.5875L64.6319 12.9978L65.2733 12.3574L65.133 13.248L65.9448 13.6582L65.0428 13.7983L64.9025 14.6888L64.4916 13.8884L63.5996 14.0284L64.241 13.3881L63.8302 12.5875Z" fill="#FCEE21"/>
<path d="M68.2489 10.7568L68.5296 11.6173H69.4316L68.7 12.1476L68.9805 13.0082L68.2489 12.4778L67.5173 13.0082L67.798 12.1476L67.0664 11.6173H67.9684L68.2489 10.7568Z" fill="#FCEE21"/>
<path d="M72.67 12.5875L72.2591 13.3881L72.9005 14.0284L72.0085 13.8884L71.5977 14.6888L71.4574 13.7983L70.5654 13.6582L71.3671 13.248L71.2269 12.3574L71.8682 12.9978L72.67 12.5875Z" fill="#FCEE21"/>
<path d="M74.504 16.999L73.6421 17.2792V18.1797L73.111 17.4493L72.249 17.7295L72.7802 16.999L72.249 16.2686L73.111 16.5488L73.6421 15.8184V16.7189L74.504 16.999Z" fill="#FCEE21"/>
<path d="M72.67 21.412L71.8682 21.0018L71.2269 21.6422L71.3671 20.7516L70.5654 20.3414L71.4574 20.2013L71.5977 19.3008L72.0085 20.1113L72.9005 19.9712L72.2591 20.6116L72.67 21.412Z" fill="#FCEE21"/>
</svg>
