<svg width="26" height="25" viewBox="0 0 26 25" fill="none" xmlns="http://www.w3.org/2000/svg">
<path d="M24.7521 11.1593C25.8001 10.3893 25.2611 8.72926 23.9636 8.72926H17.2763C16.6974 8.72926 16.1784 8.34926 15.9987 7.79926L13.9327 1.41926C13.5334 0.179258 11.7767 0.179258 11.3774 1.41926L9.31141 7.79926C9.13175 8.34926 8.61271 8.72926 8.0338 8.72926H1.34652C0.0489773 8.72926 -0.500022 10.3993 0.557974 11.1593L5.96777 15.0993C6.43688 15.4393 6.63649 16.0493 6.45683 16.5993L4.39068 22.9793C3.99144 24.2193 5.40882 25.2493 6.45683 24.4793L11.8665 20.5393C12.3356 20.1993 12.9745 20.1993 13.4436 20.5393L18.8533 24.4793C19.9013 25.2493 21.3187 24.2193 20.9194 22.9793L18.8533 16.5993C18.6736 16.0493 18.8732 15.4393 19.3423 15.0993L24.7521 11.1593Z" fill="#72FF01"/>
</svg>
